<svg width="213" height="63" viewBox="0 0 213 63" fill="none" xmlns="http://www.w3.org/2000/svg">
<g clip-path="url(#clip0_61_28)">
<path d="M205.422 63.001H7.46131C3.34804 63.001 0 59.6494 0 55.5465V7.44443C0 3.33998 3.34804 0.000976562 7.46131 0.000976562H205.422C209.534 0.000976562 213 3.33998 213 7.44443V55.5465C213 59.6494 209.534 63.001 205.422 63.001Z" fill="#A6A6A6"/>
<path d="M211.475 55.5479C211.475 58.8806 208.77 61.5801 205.425 61.5801H7.46322C4.11991 61.5801 1.40613 58.8806 1.40613 55.5479V7.44265C1.40613 4.11153 4.11991 1.40253 7.46322 1.40253H205.424C208.77 1.40253 211.473 4.11153 211.473 7.44265L211.475 55.5479Z" fill="black"/>
<path d="M44.3426 31.1617C44.2969 26.0855 48.5064 23.6159 48.6989 23.5009C46.3148 20.0312 42.6197 19.5571 41.3212 19.5193C38.2177 19.1933 35.2073 21.3731 33.6264 21.3731C32.0139 21.3731 29.5794 19.5508 26.9555 19.6044C23.5791 19.6563 20.4204 21.6078 18.688 24.6381C15.1127 30.8168 17.7792 39.8967 21.2045 44.891C22.918 47.337 24.9202 50.068 27.5409 49.9719C30.1048 49.8664 31.0625 48.3402 34.1565 48.3402C37.2221 48.3402 38.1214 49.9719 40.7942 49.9105C43.5458 49.8664 45.2782 47.4535 46.9317 44.9855C48.9119 42.182 49.7071 39.421 49.7386 39.2793C49.6739 39.2572 44.3947 37.2459 44.3426 31.1617Z" fill="white"/>
<path d="M39.2984 16.2336C40.6773 14.5121 41.6209 12.1701 41.3589 9.7934C39.3631 9.8816 36.867 11.1715 35.4297 12.8552C34.158 14.3388 33.022 16.7706 33.3154 19.0575C35.5575 19.2245 37.8594 17.9283 39.2984 16.2336Z" fill="white"/>
<path d="M81.6263 49.6209H78.0432L76.0804 43.4642H69.2581L67.3884 49.6209H63.9L70.6592 28.6608H74.834L81.6263 49.6209ZM75.4887 40.8812L73.7137 35.4081C73.526 34.8489 73.1741 33.5322 72.6551 31.4595H72.5919C72.3853 32.351 72.0523 33.6677 71.5948 35.4081L69.8513 40.8812H75.4887V40.8812Z" fill="white"/>
<path d="M99.0106 41.8777C99.0106 44.4481 98.3148 46.4799 96.9232 47.9714C95.6768 49.2991 94.129 49.9622 92.2814 49.9622C90.2871 49.9622 88.8544 49.2472 87.9819 47.8171H87.9188V55.7787H84.555V39.4822C84.555 37.8662 84.5124 36.2077 84.4304 34.5067H87.3887L87.5764 36.9023H87.6396C88.7614 35.0974 90.4638 34.1965 92.7484 34.1965C94.5344 34.1965 96.0254 34.9005 97.2182 36.3101C98.4142 37.7213 99.0106 39.5767 99.0106 41.8777ZM95.5837 42.0006C95.5837 40.5295 95.2523 39.3168 94.5865 38.3623C93.8592 37.3669 92.8825 36.8692 91.6582 36.8692C90.8282 36.8692 90.0741 37.1464 89.4004 37.693C88.7251 38.2442 88.2833 38.964 88.0766 39.8554C87.9725 40.2712 87.9204 40.6114 87.9204 40.8792V43.3992C87.9204 44.4985 88.258 45.4262 88.9333 46.1838C89.6086 46.9414 90.4859 47.3194 91.5651 47.3194C92.832 47.3194 93.8181 46.8311 94.5234 45.8578C95.2302 44.8828 95.5837 43.5976 95.5837 42.0006Z" fill="white"/>
<path d="M116.423 41.8777C116.423 44.4481 115.728 46.4799 114.334 47.9714C113.09 49.2991 111.542 49.9622 109.694 49.9622C107.7 49.9622 106.267 49.2472 105.396 47.8171H105.333V55.7787H101.969V39.4822C101.969 37.8662 101.927 36.2077 101.845 34.5067H104.803L104.991 36.9023H105.054C106.174 35.0974 107.877 34.1965 110.163 34.1965C111.947 34.1965 113.438 34.9005 114.634 36.3101C115.825 37.7213 116.423 39.5767 116.423 41.8777ZM112.996 42.0006C112.996 40.5295 112.664 39.3168 111.998 38.3623C111.27 37.3669 110.297 36.8692 109.071 36.8692C108.239 36.8692 107.487 37.1464 106.812 37.693C106.136 38.2442 105.696 38.964 105.489 39.8554C105.387 40.2712 105.333 40.6114 105.333 40.8792V43.3992C105.333 44.4985 105.671 45.4262 106.343 46.1838C107.018 46.9398 107.896 47.3194 108.978 47.3194C110.245 47.3194 111.231 46.8311 111.936 45.8578C112.643 44.8828 112.996 43.5976 112.996 42.0006Z" fill="white"/>
<path d="M135.888 43.7428C135.888 45.5257 135.268 46.9763 134.023 48.0961C132.655 49.3199 130.751 49.931 128.304 49.931C126.044 49.931 124.233 49.4963 122.862 48.6253L123.641 45.8265C125.118 46.718 126.738 47.1653 128.504 47.1653C129.771 47.1653 130.757 46.8786 131.466 46.3085C132.171 45.7383 132.523 44.9729 132.523 44.0184C132.523 43.1679 132.232 42.4513 131.65 41.8701C131.071 41.2889 130.104 40.7487 128.753 40.2494C125.077 38.8808 123.241 36.8758 123.241 34.2392C123.241 32.5162 123.884 31.1034 125.173 30.0041C126.458 28.9031 128.171 28.3535 130.314 28.3535C132.224 28.3535 133.812 28.6858 135.079 29.3489L134.238 32.0862C133.054 31.4436 131.716 31.1223 130.219 31.1223C129.036 31.1223 128.111 31.4137 127.448 31.9933C126.888 32.5115 126.608 33.143 126.608 33.8912C126.608 34.7196 126.928 35.4047 127.572 35.9434C128.132 36.4411 129.149 36.9797 130.626 37.5609C132.433 38.287 133.76 39.1359 134.613 40.1093C135.464 41.0795 135.888 42.2938 135.888 43.7428Z" fill="white"/>
<path d="M147.017 37.0261H143.31V44.364C143.31 46.2304 143.963 47.1628 145.272 47.1628C145.873 47.1628 146.372 47.1108 146.766 47.0069L146.86 49.5568C146.197 49.8041 145.324 49.9285 144.244 49.9285C142.915 49.9285 141.877 49.5237 141.128 48.7158C140.381 47.9062 140.006 46.5486 140.006 44.6412V37.023H137.797V34.503H140.006V31.7357L143.31 30.7403V34.503H147.017V37.0261Z" fill="white"/>
<path d="M163.747 41.9397C163.747 44.2629 163.081 46.1702 161.752 47.6617C160.359 49.1973 158.51 49.9628 156.205 49.9628C153.983 49.9628 152.215 49.2273 150.896 47.7562C149.576 46.2852 148.917 44.4282 148.917 42.1902C148.917 39.8481 149.595 37.9298 150.957 36.4383C152.316 34.9452 154.149 34.1986 156.454 34.1986C158.676 34.1986 160.463 34.9341 161.812 36.4068C163.103 37.8353 163.747 39.6796 163.747 41.9397ZM160.256 42.0484C160.256 40.6545 159.958 39.4591 159.354 38.4621C158.649 37.2557 157.641 36.654 156.334 36.654C154.982 36.654 153.955 37.2573 153.25 38.4621C152.645 39.4607 152.347 40.675 152.347 42.1114C152.347 43.5053 152.645 44.7007 153.25 45.6961C153.977 46.9026 154.993 47.5042 156.304 47.5042C157.588 47.5042 158.597 46.89 159.324 45.6646C159.944 44.6487 160.256 43.4407 160.256 42.0484Z" fill="white"/>
<path d="M174.677 37.4599C174.344 37.3984 173.989 37.3669 173.617 37.3669C172.433 37.3669 171.518 37.8127 170.875 38.7057C170.315 39.4932 170.034 40.4886 170.034 41.6903V49.6204H166.671L166.703 39.2664C166.703 37.5244 166.66 35.9384 166.577 34.5083H169.507L169.63 37.4H169.723C170.078 36.4062 170.638 35.6061 171.405 35.006C172.154 34.4658 172.964 34.1965 173.836 34.1965C174.147 34.1965 174.428 34.2185 174.677 34.2579V37.4599Z" fill="white"/>
<path d="M189.721 41.3489C189.721 41.9505 189.682 42.4577 189.598 42.8719H179.507C179.546 44.365 180.033 45.5069 180.971 46.2944C181.821 46.9984 182.921 47.3512 184.271 47.3512C185.766 47.3512 187.129 47.1134 188.355 46.6362L188.882 48.9672C187.449 49.5909 185.758 49.9011 183.806 49.9011C181.458 49.9011 179.615 49.2113 178.274 47.8332C176.936 46.455 176.266 44.6044 176.266 42.2829C176.266 40.0038 176.889 38.106 178.137 36.5924C179.443 34.9764 181.209 34.1685 183.43 34.1685C185.613 34.1685 187.264 34.9764 188.386 36.5924C189.275 37.876 189.721 39.4636 189.721 41.3489ZM186.513 40.4779C186.536 39.4825 186.316 38.6226 185.86 37.8965C185.278 36.9625 184.383 36.4963 183.18 36.4963C182.08 36.4963 181.185 36.9515 180.502 37.865C179.942 38.5911 179.609 39.462 179.507 40.4763H186.513V40.4779Z" fill="white"/>
<path d="M74.3759 15.7655C74.3759 17.6193 73.8189 19.0148 72.7066 19.9519C71.6763 20.8166 70.2121 21.2497 68.3156 21.2497C67.3753 21.2497 66.5706 21.2087 65.8969 21.1268V10.998C66.7757 10.8563 67.7224 10.7838 68.7448 10.7838C70.5514 10.7838 71.913 11.176 72.8312 11.9603C73.86 12.8471 74.3759 14.1149 74.3759 15.7655ZM72.6324 15.8112C72.6324 14.6095 72.3137 13.6881 71.6763 13.0455C71.0389 12.4045 70.108 12.0832 68.8821 12.0832C68.3614 12.0832 67.918 12.1178 67.5504 12.1903V19.8905C67.754 19.922 68.1263 19.9361 68.6675 19.9361C69.9329 19.9361 70.9095 19.5849 71.5974 18.8825C72.2853 18.18 72.6324 17.1563 72.6324 15.8112Z" fill="white"/>
<path d="M83.6235 17.3849C83.6235 18.5267 83.2969 19.4623 82.6437 20.1962C81.9589 20.9507 81.0517 21.3271 79.9188 21.3271C78.827 21.3271 77.9577 20.9664 77.3092 20.2419C76.6623 19.519 76.3389 18.6071 76.3389 17.5077C76.3389 16.358 76.6718 15.4145 77.3408 14.6822C78.0097 13.9498 78.9091 13.5828 80.0419 13.5828C81.1337 13.5828 82.011 13.9435 82.6752 14.6664C83.3063 15.3689 83.6235 16.2761 83.6235 17.3849ZM81.9084 17.4384C81.9084 16.7533 81.7601 16.1658 81.4651 15.676C81.118 15.0838 80.6241 14.7877 79.982 14.7877C79.3177 14.7877 78.8128 15.0838 78.4657 15.676C78.1691 16.1658 78.0224 16.7627 78.0224 17.4683C78.0224 18.1535 78.1707 18.7409 78.4657 19.2308C78.8239 19.823 79.3224 20.1191 79.9662 20.1191C80.5973 20.1191 81.0927 19.8182 81.4493 19.215C81.7554 18.7157 81.9084 18.1235 81.9084 17.4384Z" fill="white"/>
<path d="M96.0136 13.7333L93.6864 21.1579H92.1718L91.2077 17.9339C90.9632 17.129 90.7644 16.3289 90.6098 15.5351H90.5798C90.4362 16.351 90.2374 17.1495 89.9818 17.9339L88.9578 21.1579H87.4258L85.2374 13.7333H86.9367L87.7776 17.2629C87.9812 18.0977 88.1484 18.893 88.2825 19.6459H88.3125C88.4356 19.0253 88.6391 18.2347 88.9263 17.2787L89.9818 13.7349H91.3292L92.3406 17.2031C92.5851 18.0488 92.7839 18.8631 92.937 19.6475H92.9827C93.0948 18.8836 93.2636 18.0693 93.4876 17.2031L94.3901 13.7349H96.0136V13.7333Z" fill="white"/>
<path d="M104.587 21.1592H102.933V16.9067C102.933 15.5963 102.435 14.9411 101.434 14.9411C100.944 14.9411 100.548 15.1207 100.24 15.4813C99.9355 15.842 99.7808 16.2673 99.7808 16.7539V21.1576H98.1273V15.8562C98.1273 15.2041 98.1068 14.497 98.0674 13.7315H99.5205L99.5978 14.8923H99.6436C99.8361 14.5316 100.123 14.2339 100.5 13.9961C100.948 13.7189 101.45 13.5787 101.999 13.5787C102.693 13.5787 103.271 13.8024 103.73 14.2513C104.301 14.8009 104.587 15.6215 104.587 16.7114V21.1592V21.1592Z" fill="white"/>
<path d="M109.146 21.1583H107.494V10.327H109.146V21.1583Z" fill="white"/>
<path d="M118.881 17.3849C118.881 18.5267 118.554 19.4623 117.901 20.1962C117.216 20.9507 116.307 21.3271 115.176 21.3271C114.083 21.3271 113.213 20.9664 112.567 20.2419C111.92 19.519 111.596 18.6071 111.596 17.5077C111.596 16.358 111.929 15.4145 112.598 14.6822C113.267 13.9498 114.166 13.5828 115.298 13.5828C116.391 13.5828 117.267 13.9435 117.933 14.6664C118.564 15.3689 118.881 16.2761 118.881 17.3849ZM117.164 17.4384C117.164 16.7533 117.016 16.1658 116.721 15.676C116.375 15.0838 115.88 14.7877 115.239 14.7877C114.573 14.7877 114.069 15.0838 113.723 15.676C113.426 16.1658 113.28 16.7627 113.28 17.4683C113.28 18.1535 113.428 18.7409 113.723 19.2308C114.081 19.823 114.58 20.1191 115.224 20.1191C115.855 20.1191 116.348 19.8182 116.705 19.215C117.013 18.7157 117.164 18.1235 117.164 17.4384Z" fill="white"/>
<path d="M126.888 21.1586H125.403L125.28 20.3033H125.234C124.726 20.9853 124.002 21.3271 123.062 21.3271C122.36 21.3271 121.792 21.1019 121.364 20.6546C120.976 20.2482 120.782 19.7426 120.782 19.1426C120.782 18.2354 121.16 17.5439 121.923 17.0651C122.683 16.5863 123.753 16.3517 125.13 16.3627V16.2241C125.13 15.246 124.616 14.7578 123.586 14.7578C122.852 14.7578 122.205 14.942 121.646 15.3074L121.31 14.2238C122.001 13.797 122.855 13.5828 123.862 13.5828C125.805 13.5828 126.781 14.6066 126.781 16.6541V19.3883C126.781 20.1301 126.817 20.7207 126.888 21.1586ZM125.171 18.6071V17.462C123.347 17.4305 122.435 17.9298 122.435 18.9583C122.435 19.3457 122.539 19.6355 122.752 19.8293C122.965 20.023 123.237 20.1191 123.56 20.1191C123.923 20.1191 124.262 20.0041 124.572 19.7757C124.882 19.5458 125.073 19.2544 125.144 18.8969C125.162 18.8165 125.171 18.7189 125.171 18.6071Z" fill="white"/>
<path d="M136.281 21.1583H134.814L134.737 19.966H134.691C134.222 20.8732 133.424 21.3268 132.302 21.3268C131.406 21.3268 130.66 20.9756 130.068 20.2732C129.476 19.5707 129.181 18.6588 129.181 17.539C129.181 16.3372 129.502 15.3639 130.145 14.6205C130.768 13.9275 131.532 13.581 132.441 13.581C133.44 13.581 134.139 13.9165 134.536 14.589H134.568V10.327H136.223V19.1581C136.223 19.881 136.242 20.5472 136.281 21.1583ZM134.568 18.0272V16.7893C134.568 16.5751 134.552 16.4018 134.522 16.2695C134.429 15.8726 134.229 15.5387 133.924 15.2694C133.616 15.0001 133.246 14.8646 132.818 14.8646C132.201 14.8646 131.718 15.1087 131.363 15.5986C131.011 16.0884 130.833 16.7137 130.833 17.4775C130.833 18.2115 131.002 18.8068 131.341 19.2652C131.699 19.7534 132.182 19.9975 132.786 19.9975C133.329 19.9975 133.763 19.7943 134.093 19.3864C134.412 19.01 134.568 18.5564 134.568 18.0272Z" fill="white"/>
<path d="M150.419 17.3849C150.419 18.5267 150.092 19.4623 149.439 20.1962C148.754 20.9507 147.849 21.3271 146.714 21.3271C145.624 21.3271 144.755 20.9664 144.105 20.2419C143.458 19.519 143.134 18.6071 143.134 17.5077C143.134 16.358 143.467 15.4145 144.136 14.6822C144.805 13.9498 145.705 13.5828 146.839 13.5828C147.929 13.5828 148.808 13.9435 149.471 14.6664C150.102 15.3689 150.419 16.2761 150.419 17.3849ZM148.706 17.4384C148.706 16.7533 148.557 16.1658 148.262 15.676C147.913 15.0838 147.421 14.7877 146.777 14.7877C146.115 14.7877 145.61 15.0838 145.261 15.676C144.965 16.1658 144.818 16.7627 144.818 17.4683C144.818 18.1535 144.966 18.7409 145.261 19.2308C145.619 19.823 146.118 20.1191 146.762 20.1191C147.393 20.1191 147.89 19.8182 148.246 19.215C148.551 18.7157 148.706 18.1235 148.706 17.4384Z" fill="white"/>
<path d="M159.308 21.1592H157.656V16.9067C157.656 15.5963 157.157 14.9411 156.156 14.9411C155.665 14.9411 155.269 15.1207 154.963 15.4813C154.657 15.842 154.504 16.2673 154.504 16.7539V21.1576H152.848V15.8562C152.848 15.2041 152.83 14.497 152.79 13.7315H154.242L154.319 14.8923H154.365C154.559 14.5316 154.846 14.2339 155.221 13.9961C155.671 13.7189 156.171 13.5787 156.722 13.5787C157.415 13.5787 157.992 13.8024 158.451 14.2513C159.024 14.8009 159.308 15.6215 159.308 16.7114V21.1592V21.1592Z" fill="white"/>
<path d="M170.441 14.9708H168.62V18.5775C168.62 19.4942 168.944 19.9525 169.584 19.9525C169.881 19.9525 170.127 19.9273 170.321 19.8753L170.364 21.1275C170.037 21.2503 169.608 21.3117 169.079 21.3117C168.426 21.3117 167.918 21.1133 167.551 20.7164C167.181 20.3195 166.998 19.6517 166.998 18.7146V14.9708H165.911V13.7344H166.998V12.3736L168.619 11.8854V13.7329H170.439V14.9708H170.441Z" fill="white"/>
<path d="M179.193 21.1583H177.538V16.9373C177.538 15.6064 177.04 14.9402 176.041 14.9402C175.274 14.9402 174.75 15.3261 174.463 16.0978C174.414 16.2601 174.386 16.4585 174.386 16.6916V21.1567H172.734V10.327H174.386V14.8016H174.417C174.938 13.9873 175.684 13.581 176.652 13.581C177.336 13.581 177.903 13.8046 178.352 14.2535C178.912 14.8126 179.193 15.6442 179.193 16.7436V21.1583V21.1583Z" fill="white"/>
<path d="M188.224 17.0937C188.224 17.3898 188.202 17.6387 188.163 17.8419H183.204C183.226 18.5758 183.462 19.1349 183.922 19.5224C184.341 19.8689 184.882 20.0421 185.545 20.0421C186.279 20.0421 186.948 19.9256 187.55 19.6909L187.809 20.8375C187.104 21.1431 186.274 21.2958 185.313 21.2958C184.161 21.2958 183.254 20.9572 182.598 20.28C181.938 19.6027 181.612 18.6939 181.612 17.5536C181.612 16.4338 181.916 15.5014 182.53 14.758C183.171 13.9642 184.037 13.5673 185.13 13.5673C186.2 13.5673 187.012 13.9642 187.562 14.758C188.005 15.388 188.224 16.1676 188.224 17.0937ZM186.646 16.6669C186.659 16.1771 186.55 15.755 186.326 15.399C186.039 14.9407 185.602 14.7108 185.01 14.7108C184.471 14.7108 184.03 14.9344 183.694 15.3833C183.42 15.7408 183.257 16.1676 183.204 16.6669H186.646Z" fill="white"/>
</g>
<defs>
<clipPath id="clip0_61_28">
<rect width="213" height="63" fill="white"/>
</clipPath>
</defs>
</svg>
