<svg width="213" height="63" viewBox="0 0 213 63" fill="none" xmlns="http://www.w3.org/2000/svg">
<rect x="0.5325" y="0.5325" width="211.935" height="61.77" rx="5.8575" fill="black" stroke="#A6A6A6" stroke-width="1.065"/>
<path d="M81.8338 27.0764V29.1827V29.8848V32.8102H81.6588H81.3087H80.0248C79.6164 32.8102 79.4413 32.6347 79.3246 32.2251C79.2663 31.9911 79.2079 31.289 79.1495 30.2358H71.2717V36.7302H78.9745V39.9481H71.2717V45.8574C71.7969 45.9744 72.2637 46.0329 72.7889 46.0914C73.3141 46.2085 73.5475 46.501 73.5475 47.0276V48.7828H71.2717H67.1285H64.8527V47.0276C64.8527 46.501 65.0861 46.1499 65.6113 46.0914C66.1365 45.9744 66.6033 45.9159 67.1285 45.8574V30.1188C66.6033 30.0018 66.1365 29.9433 65.6113 29.8848C65.0861 29.7678 64.8527 29.4752 64.8527 28.9487V27.1934H67.1285H80.375H81.0753L81.8338 27.0764Z" fill="white"/>
<path d="M91.1704 38.3097V41.4691H83.2925V38.3097H91.1704Z" fill="white"/>
<path d="M114.222 38.0763C114.222 41.0017 113.23 43.9271 111.129 45.9749C108.97 48.0811 105.994 49.0758 103.018 49.0758H94.9062H92.6304V47.3205C92.6304 46.794 92.8638 46.4429 93.389 46.3844C93.9142 46.2674 94.381 46.2089 94.9062 46.1504V30.1192C94.381 30.0022 93.9142 29.9437 93.389 29.8852C92.8638 29.7682 92.6304 29.4757 92.6304 28.9491V27.1938H94.9062H103.018C105.994 27.1938 108.97 28.13 111.129 30.2948C113.288 32.2255 114.222 35.2094 114.222 38.0763C114.222 36.4966 114.222 39.7145 114.222 38.0763ZM110.078 38.0763C110.078 36.087 109.612 34.0393 108.269 32.5181C106.927 30.9969 105.002 30.3533 103.076 30.3533H99.1078V45.7993H103.076C105.06 45.7993 106.986 45.1557 108.269 43.6345C109.612 42.1133 110.078 40.0656 110.078 38.0763Z" fill="white"/>
<path d="M127.643 33.688L127.118 36.4963C127.001 37.1399 126.359 37.0229 125.892 36.9059C125.309 36.7304 124.609 36.7304 124.083 36.9059C122.8 37.1984 121.924 38.2516 121.457 39.3632V46.0331C122.8 46.2671 122.8 46.2671 122.975 46.2671C123.5 46.3842 123.733 46.6767 123.733 47.2033V48.9585H121.457H117.664H115.389V47.2033C115.389 46.6767 115.622 46.3257 116.147 46.2671C116.381 46.2086 116.381 46.2086 117.664 46.0331V36.4963C116.322 36.2623 116.322 36.2623 116.147 36.2623C115.622 36.1453 115.389 35.8528 115.389 35.3262V33.5709H117.664H119.882C120.524 33.5709 120.874 33.805 120.991 34.5071L121.166 36.3793C121.808 35.2677 122.683 34.2145 123.908 33.6295C125.017 33.0444 126.534 32.9859 127.643 33.688Z" fill="white"/>
<path d="M139.138 33.8053C142.465 35.151 143.807 38.486 143.69 41.8209C143.515 45.0973 141.706 48.0812 138.38 49.0173C135.229 49.895 131.436 49.0174 129.568 46.1505C127.759 43.4591 127.701 39.3636 129.393 36.5552C131.319 33.3958 135.754 32.4597 139.138 33.8053C138.205 33.3958 140.072 34.1564 139.138 33.8053ZM138.847 45.0973C140.014 43.4591 140.014 40.9433 139.547 39.1295C139.372 38.2519 138.963 37.4328 138.263 36.8477C137.504 36.2627 136.512 36.0286 135.579 36.1456C133.536 36.2627 132.486 37.7254 132.194 39.5976C131.902 41.4113 131.902 43.9857 133.245 45.4484C134.703 46.9111 137.621 46.7941 138.847 45.0973C138.263 45.975 139.488 44.2782 138.847 45.0973Z" fill="white"/>
<path d="M153.084 47.3198V49.0751H150.808H147.015H144.681V47.3198C144.681 46.7933 144.914 46.4422 145.44 46.3837C145.965 46.2667 146.432 46.2082 146.957 46.1497V36.5544C146.432 36.4374 145.965 36.3789 145.44 36.3204C144.914 36.2034 144.681 35.9108 144.681 35.3842V33.629H146.957H150.75V46.2082C151.275 46.3252 151.742 46.3837 152.267 46.4422C152.851 46.4422 153.084 46.7933 153.084 47.3198ZM151.158 29.8845C150.575 31.0547 149.174 31.6397 148.007 31.1717C146.84 30.6451 146.198 29.2409 146.723 28.0708C147.249 26.8421 148.649 26.3155 149.875 26.7836C151.1 27.2517 151.742 28.6559 151.158 29.8845C151.333 29.5335 151.042 30.1185 151.158 29.8845Z" fill="white"/>
<path d="M170.651 49.0169H168.492H166.216C165.749 49.0169 165.341 48.8414 165.224 48.3149L164.932 46.9107C163.532 48.5489 161.489 49.5435 159.214 49.3095C156.996 49.0754 155.42 47.4372 154.662 45.448C153.261 41.5865 153.903 35.9112 157.93 33.8634C160.147 32.7518 162.89 32.9858 164.699 34.741V29.5338C164.174 29.4168 163.707 29.3583 163.182 29.2998C162.656 29.1828 162.423 28.8903 162.423 28.3637V26.6085H164.699H168.492V46.2086C168.959 46.3256 169.426 46.3841 169.892 46.4426C170.418 46.5596 170.651 46.8522 170.651 47.3787V49.0169ZM164.757 37.4909C163.765 36.3208 162.306 35.7942 160.847 36.1452C159.389 36.4963 158.572 37.7834 158.28 39.1291C157.988 40.4748 157.988 42.0545 158.221 43.4587C158.455 44.8044 159.213 46.0331 160.614 46.3256C162.306 46.6181 163.765 45.7405 164.816 44.5118V37.4909H164.757Z" fill="white"/>
<path d="M69.316 19.1996V17.7702H73.0521V21.1711C71.2332 22.9455 67.5462 23.0934 65.924 21.0233C64.3017 18.9531 64.7441 15.355 67.2021 14.1228C68.2836 13.5806 69.7093 13.5806 70.7908 13.9256C71.8723 14.2707 72.6589 15.1086 72.9047 16.2422L71.1841 16.5872C70.84 15.355 69.4635 14.9607 68.3328 15.355C67.2513 15.7 66.8089 16.7351 66.7597 17.7702C66.7106 18.8545 66.9072 20.0375 67.7921 20.6782C68.8244 21.4669 70.2992 21.1218 71.2332 20.3825V19.2489H69.316V19.1996Z" fill="white"/>
<path d="M74.6273 22.4033V13.8763H81.0181V15.3057H76.3971V17.1787H80.7231V18.6081H76.3971V20.974H81.2147V22.4033H74.6273Z" fill="white"/>
<path d="M84.6064 22.4033V15.3057H82.0993V13.8763H88.9325V15.3057H86.4254V22.4526L84.6064 22.4033Z" fill="white"/>
<path d="M93.3072 22.4033V13.8763H95.0278V22.4033H93.3072Z" fill="white"/>
<path d="M98.6146 22.4033V15.3057H96.1074V13.8763H102.941V15.3057H100.434V22.4526L98.6146 22.4033Z" fill="white"/>
<path d="M106.972 18.1646C106.972 17.3267 107.119 16.5381 107.365 15.9959C107.758 15.158 108.447 14.4187 109.282 14.0244C110.659 13.4822 112.478 13.5315 113.707 14.468C114.936 15.3552 115.378 16.8831 115.329 18.3125C115.28 19.7419 114.788 21.1713 113.461 22.0092C112.232 22.7978 110.462 22.7978 109.184 22.157C107.611 21.4177 106.972 19.7912 106.972 18.1646ZM108.791 18.1154C108.791 19.249 109.135 20.4812 110.315 20.8755C111.396 21.3191 112.674 20.8755 113.166 19.8898C113.658 18.9533 113.658 17.4746 113.314 16.5381C112.871 15.503 111.79 15.0101 110.708 15.2073C109.233 15.4537 108.791 16.8338 108.791 18.1154Z" fill="white"/>
<path d="M116.708 22.4033V13.8763H118.379L121.919 19.5939V13.8763H123.541V22.4033H121.771L118.281 16.7844V22.4033H116.708Z" fill="white"/>
<path d="M47.4536 46.8524H20.7C19.3916 46.8524 18.3539 45.812 18.3539 44.5002V28.804C18.3539 27.4922 19.4368 26.4518 20.7 26.4518H47.4536C48.7619 26.4518 49.7996 27.4922 49.7996 28.804V44.5002C49.7996 45.7668 48.7168 46.8524 47.4536 46.8524Z" fill="url(#paint0_linear_61_69)"/>
<path d="M47.4536 27.266C48.3108 27.266 49.0326 27.9897 49.0326 28.8492V44.5002C49.0326 45.3597 48.3108 46.0834 47.4536 46.0834H20.7C19.8428 46.0834 19.1209 45.3597 19.1209 44.5002V28.804C19.1209 27.9445 19.8428 27.2208 20.7 27.2208H47.4536M47.4536 26.4518H20.7C19.3916 26.4518 18.3539 27.4922 18.3539 28.804V44.5002C18.3539 45.812 19.4368 46.8524 20.7 46.8524H47.4536C48.7619 46.8524 49.7996 45.812 49.7996 44.5002V28.804C49.7996 27.5374 48.7168 26.4518 47.4536 26.4518Z" fill="url(#paint1_linear_61_69)"/>
<path d="M34.0575 29.3913C38.0728 29.3913 41.3211 32.6482 41.3211 36.6288C41.3211 40.6094 38.0728 43.8663 34.0575 43.8663C30.0422 43.8663 26.7939 40.6094 26.7939 36.6288C26.7939 32.6482 30.0422 29.3913 34.0575 29.3913ZM34.0575 28.8033C29.7264 28.8033 26.2073 32.3315 26.2073 36.6288C26.2073 40.926 29.7264 44.4543 34.0575 44.4543C38.3886 44.4543 41.9076 40.926 41.9076 36.6288C41.9076 32.3315 38.4337 28.8033 34.0575 28.8033Z" fill="#295384"/>
<path d="M31.8015 35.9502C32.6587 33.3718 36.6288 34.186 36.4032 36.9453C36.1777 39.4784 32.5684 39.7498 31.8015 37.4881C31.8015 37.4881 31.8015 37.5333 31.8015 37.4881C30.7187 37.5786 29.681 37.6691 28.5983 37.7595C29.3652 42.3282 35.501 43.6852 38.3432 40.1569C41.2758 36.5382 38.4786 31.0196 33.8317 31.2006C31.3052 31.3363 29.0945 33.1456 28.6434 35.6335" fill="#295384"/>
<path d="M52.0599 12.2471L51.1576 11.5234C51.0222 11.3877 50.7064 11.3877 50.6162 11.5686L47.5483 15.1421C47.413 15.2778 47.413 15.5944 47.5934 15.6849L48.4957 16.4087C48.6311 16.5444 48.9469 16.5444 49.0371 16.3634L52.105 12.7899C52.2403 12.6542 52.1952 12.3828 52.0599 12.2471Z" fill="#7B952D"/>
<path d="M16.1019 11.9761L17.0042 11.2524C17.1395 11.1167 17.4554 11.1167 17.5456 11.2976L20.6134 14.8711C20.7488 15.0068 20.7488 15.3234 20.5683 15.4139L19.666 16.1377C19.5307 16.2734 19.2149 16.2734 19.1247 16.0924L16.0568 12.5189C15.9214 12.3832 15.9665 12.1571 16.1019 11.9761Z" fill="#7B952D"/>
<path d="M48.6295 25.275H19.5299C19.0787 25.275 18.7629 24.9132 18.7629 24.5061V15.8663C18.7629 15.414 19.1238 15.0974 19.5299 15.0974H48.6295C49.0807 15.0974 49.3965 15.4592 49.3965 15.8663V24.5061C49.3965 24.9132 49.0356 25.275 48.6295 25.275Z" fill="url(#paint2_linear_61_69)" stroke="#7B952D" stroke-width="0.451157" stroke-miterlimit="10"/>
<path d="M26.2085 22.5598C27.7284 22.5598 28.9605 21.3244 28.9605 19.8005C28.9605 18.2766 27.7284 17.0412 26.2085 17.0412C24.6885 17.0412 23.4564 18.2766 23.4564 19.8005C23.4564 21.3244 24.6885 22.5598 26.2085 22.5598Z" fill="white"/>
<path d="M26.2095 22.9219C24.4951 22.9219 23.0514 21.5196 23.0514 19.8007C23.0514 18.0818 24.45 16.6796 26.2095 16.6796C27.9239 16.6796 29.3676 18.0818 29.3676 19.8007C29.3225 21.5196 27.969 22.9219 26.2095 22.9219ZM26.2095 17.4485C24.9011 17.4485 23.8635 18.4889 23.8635 19.8007C23.8635 21.1125 24.9463 22.1529 26.2095 22.1529C27.4727 22.1529 28.5555 21.1125 28.5555 19.8007C28.5555 18.4889 27.5178 17.4485 26.2095 17.4485Z" fill="url(#paint3_linear_61_69)"/>
<path d="M41.9058 22.5598C43.4258 22.5598 44.6579 21.3244 44.6579 19.8005C44.6579 18.2766 43.4258 17.0412 41.9058 17.0412C40.3859 17.0412 39.1537 18.2766 39.1537 19.8005C39.1537 21.3244 40.3859 22.5598 41.9058 22.5598Z" fill="white"/>
<path d="M41.9069 22.9219C40.1925 22.9219 38.7488 21.5196 38.7488 19.8007C38.7488 18.0818 40.1474 16.6796 41.9069 16.6796C43.6213 16.6796 45.065 18.0818 45.065 19.8007C45.065 21.5196 43.7115 22.9219 41.9069 22.9219ZM41.9069 17.4485C40.5985 17.4485 39.5608 18.4889 39.5608 19.8007C39.5608 21.1125 40.6436 22.1529 41.9069 22.1529C43.2152 22.1529 44.2529 21.1125 44.2529 19.8007C44.2529 18.4889 43.2603 17.4485 41.9069 17.4485Z" fill="url(#paint4_linear_61_69)"/>
<defs>
<linearGradient id="paint0_linear_61_69" x1="34.0518" y1="46.8524" x2="34.0518" y2="26.4671" gradientUnits="userSpaceOnUse">
<stop stop-color="#2B6099"/>
<stop offset="0.1299" stop-color="#2F69A1"/>
<stop offset="0.3451" stop-color="#3B83B6"/>
<stop offset="0.5" stop-color="#4699C8"/>
<stop offset="0.9944" stop-color="#479ECB"/>
</linearGradient>
<linearGradient id="paint1_linear_61_69" x1="34.0518" y1="46.8524" x2="34.0518" y2="26.4671" gradientUnits="userSpaceOnUse">
<stop stop-color="#2B6099"/>
<stop offset="0.5" stop-color="#58A4CD"/>
<stop offset="0.7865" stop-color="#7FB8D9"/>
<stop offset="1" stop-color="#9EC9E2"/>
</linearGradient>
<linearGradient id="paint2_linear_61_69" x1="34.0547" y1="25.2903" x2="34.0547" y2="15.0975" gradientUnits="userSpaceOnUse">
<stop stop-color="#BCDB52"/>
<stop offset="0.3206" stop-color="#C5E358"/>
<stop offset="0.5" stop-color="#CDEA5C"/>
<stop offset="0.9944" stop-color="#DCF285"/>
</linearGradient>
<linearGradient id="paint3_linear_61_69" x1="27.1065" y1="16.7946" x2="25.2679" y2="22.7926" gradientUnits="userSpaceOnUse">
<stop stop-color="#8BA53D"/>
<stop offset="0.0848472" stop-color="#94AE45"/>
<stop offset="0.2259" stop-color="#AEC65C"/>
<stop offset="0.4048" stop-color="#D7ED81"/>
<stop offset="0.4246" stop-color="#DCF285"/>
</linearGradient>
<linearGradient id="paint4_linear_61_69" x1="42.8415" y1="16.7946" x2="41.0031" y2="22.7924" gradientUnits="userSpaceOnUse">
<stop stop-color="#8BA53D"/>
<stop offset="0.0848472" stop-color="#94AE45"/>
<stop offset="0.2259" stop-color="#AEC65C"/>
<stop offset="0.4048" stop-color="#D7ED81"/>
<stop offset="0.4246" stop-color="#DCF285"/>
</linearGradient>
</defs>
</svg>
