<svg width="213" height="63" viewBox="0 0 213 63" fill="none" xmlns="http://www.w3.org/2000/svg">
<g clip-path="url(#clip0_61_60)">
<path d="M205.107 62.9999H7.8929C3.55409 62.9999 0.00421143 59.4562 0.00421143 55.125V7.87589C0.00421143 3.54469 3.55409 0.0010376 7.8929 0.0010376H205.107C209.446 0.0010376 212.996 3.54469 212.996 7.87589V55.125C212.996 59.4562 209.446 62.9999 205.107 62.9999Z" fill="#100F0D"/>
<path d="M205.107 0.0010376H7.8929C3.55409 0.0010376 0.00421143 3.54469 0.00421143 7.87589V55.125C0.00421143 59.4562 3.55409 62.9999 7.8929 62.9999H205.107C209.446 62.9999 212.996 59.4562 212.996 55.125V7.87589C212.996 3.54469 209.446 0.0010376 205.107 0.0010376V0.0010376ZM205.107 1.26038C208.761 1.26038 211.734 4.22828 211.734 7.87589V55.125C211.734 58.7726 208.761 61.7405 205.107 61.7405H7.8929C4.23889 61.7405 1.26706 58.7726 1.26706 55.125V7.87589C1.26706 4.22828 4.23889 1.26038 7.8929 1.26038H205.107" fill="#A2A2A1"/>
<path d="M168.721 47.25H171.665V27.5596H168.721V47.25ZM195.238 34.653L191.863 43.1893H191.762L188.26 34.653H185.088L190.342 46.5837L187.346 53.2206H190.416L198.512 34.6536L195.238 34.653ZM178.541 45.0134C177.579 45.0134 176.233 44.5316 176.233 43.3412C176.233 41.8215 177.908 41.2389 179.354 41.2389C180.647 41.2389 181.258 41.517 182.044 41.8972C181.815 43.7213 180.242 45.0133 178.541 45.0133L178.541 45.0134ZM178.898 34.2224C176.766 34.2224 174.559 35.1599 173.645 37.237L176.258 38.326C176.817 37.237 177.856 36.8827 178.948 36.8827C180.471 36.8827 182.018 37.7938 182.044 39.4156V39.618C181.51 39.314 180.368 38.8582 178.973 38.8582C176.155 38.8582 173.289 40.4029 173.289 43.2907C173.289 45.9252 175.599 47.6225 178.186 47.6225C180.165 47.6225 181.258 46.7359 181.941 45.697H182.044V47.2177H184.887V39.6683C184.887 36.1726 182.271 34.2223 178.898 34.2223V34.2224ZM160.703 37.0499H156.515V30.3011H160.703C162.904 30.3011 164.153 32.1197 164.153 33.6754C164.153 35.2013 162.904 37.0499 160.703 37.0499ZM160.627 27.5601H153.573V47.2504H156.515V39.7909H160.627C163.89 39.7909 167.097 37.4334 167.097 33.6761C167.097 29.9196 163.89 27.5609 160.627 27.5609L160.627 27.5601ZM122.16 45.0167C120.126 45.0167 118.424 43.3161 118.424 40.9827C118.424 38.6221 120.126 36.8975 122.16 36.8975C124.168 36.8975 125.744 38.6222 125.744 40.9827C125.744 43.3161 124.168 45.0167 122.16 45.0167ZM125.541 35.7553H125.439C124.778 34.9689 123.507 34.2584 121.906 34.2584C118.551 34.2584 115.475 37.2022 115.475 40.9827C115.475 44.7374 118.551 47.6554 121.906 47.6554C123.507 47.6554 124.778 46.9447 125.439 46.1333H125.541V47.0967C125.541 49.6604 124.168 51.0299 121.957 51.0299C120.153 51.0299 119.034 49.736 118.576 48.6451L116.01 49.7107C116.746 51.4861 118.703 53.6691 121.957 53.6691C125.415 53.6691 128.338 51.6387 128.338 46.6906V34.6642H125.541L125.541 35.7553ZM130.371 47.2494H133.319V27.559H130.371V47.2494ZM137.665 40.7539C137.59 38.1656 139.674 36.8465 141.173 36.8465C142.343 36.8465 143.333 37.4304 143.665 38.2671L137.665 40.7539ZM146.816 38.5206C146.257 37.0244 144.554 34.2584 141.072 34.2584C137.614 34.2584 134.742 36.9733 134.742 40.9569C134.742 44.7123 137.59 47.6555 141.401 47.6555C144.477 47.6555 146.257 45.7785 146.994 44.687L144.707 43.1644C143.944 44.281 142.902 45.0168 141.401 45.0168C139.903 45.0168 138.835 44.3315 138.149 42.9867L147.121 39.2824L146.816 38.5206ZM75.3317 36.3138V39.1555H82.1436C81.9402 40.754 81.4064 41.921 80.5929 42.7331C79.6013 43.7223 78.0508 44.8137 75.3316 44.8137C71.1375 44.8137 67.8588 41.4392 67.8588 37.2526C67.8588 33.066 71.1375 29.6911 75.3316 29.6911C77.5939 29.6911 79.2457 30.5793 80.4658 31.7212L82.4744 29.7162C80.7709 28.0926 78.5091 26.8493 75.3316 26.8493C69.5863 26.8493 64.757 31.5181 64.757 37.2526C64.757 42.9866 69.5863 47.6555 75.3316 47.6555C78.4321 47.6555 80.771 46.6404 82.6008 44.7376C84.4818 42.8598 85.0666 40.2211 85.0666 38.0894C85.0666 37.4305 85.0154 36.8215 84.9137 36.3138H75.3317ZM92.8119 45.0167C90.778 45.0167 89.024 43.342 89.024 40.9569C89.024 38.5465 90.778 36.8977 92.8119 36.8977C94.845 36.8977 96.5989 38.5465 96.5989 40.9569C96.5989 43.342 94.845 45.0167 92.8119 45.0167ZM92.8119 34.2584C89.0998 34.2584 86.0755 37.0747 86.0755 40.9569C86.0755 44.8137 89.0998 47.6555 92.8119 47.6555C96.5226 47.6555 99.5474 44.8137 99.5474 40.9569C99.5474 37.0747 96.5226 34.2584 92.8119 34.2584V34.2584ZM107.505 45.0167C105.473 45.0167 103.718 43.342 103.718 40.9569C103.718 38.5465 105.473 36.8977 107.505 36.8977C109.539 36.8977 111.293 38.5465 111.293 40.9569C111.293 43.342 109.539 45.0167 107.505 45.0167ZM107.505 34.2584C103.795 34.2584 100.77 37.0747 100.77 40.9569C100.77 44.8137 103.795 47.6555 107.505 47.6555C111.217 47.6555 114.242 44.8137 114.242 40.9569C114.242 37.0747 111.217 34.2584 107.505 34.2584" fill="white"/>
<path d="M32.688 30.5933L15.8918 48.3901C15.8924 48.3938 15.8937 48.3968 15.8943 48.4006C16.4094 50.3332 18.1776 51.7561 20.2762 51.7561C21.115 51.7561 21.9026 51.5297 22.5781 51.1323L22.6317 51.1009L41.539 40.2097L32.6889 30.5931" fill="#EB3131"/>
<path d="M49.6832 27.5641L49.6671 27.5531L41.5043 22.8293L32.3077 30.9984L41.5362 40.2095L49.656 35.5326C51.0795 34.7655 52.046 33.2673 52.046 31.5398C52.046 29.8246 51.0926 28.3339 49.6831 27.5642" fill="#F6B60B"/>
<path d="M15.8878 14.6129C15.7868 14.9845 15.7338 15.3739 15.7338 15.7782V47.2268C15.7338 47.6303 15.7862 48.021 15.8885 48.3914L33.2645 31.0493L15.8885 14.6133" fill="#5778C5"/>
<path d="M32.8094 31.5014L41.5037 22.8249L22.6177 11.8943C21.9312 11.4838 21.13 11.2469 20.2727 11.2469C18.1742 11.2469 16.4036 12.6725 15.8883 14.6073C15.8877 14.6092 15.8877 14.6105 15.8877 14.6121L32.8094 31.5017" fill="#3BAD49"/>
<path d="M74.7792 15.4053H70.1767V16.5423H73.6256C73.5319 17.4701 73.1621 18.1985 72.5384 18.7276C71.9147 19.2568 71.1184 19.5225 70.1767 19.5225C69.1437 19.5225 68.2686 19.1633 67.5513 18.4496C66.8486 17.7212 66.4913 16.8205 66.4913 15.7352C66.4913 14.6501 66.8486 13.7493 67.5513 13.0209C68.2686 12.3073 69.1438 11.9504 70.1767 11.9504C70.7068 11.9504 71.2122 12.0415 71.6755 12.2409C72.139 12.4401 72.5112 12.7182 72.8022 13.0751L73.6773 12.2015C73.2804 11.7511 72.7775 11.4066 72.1537 11.1556C71.53 10.9045 70.8792 10.784 70.1766 10.784C68.7986 10.784 67.6301 11.2614 66.676 12.2138C65.722 13.1686 65.2437 14.3449 65.2437 15.7353C65.2437 17.1256 65.7219 18.3045 66.676 19.2569C67.6301 20.2092 68.7986 20.6867 70.1766 20.6867C71.6237 20.6867 72.7774 20.224 73.6649 19.2839C74.4464 18.5014 74.8457 17.4432 74.8457 16.1193C74.8457 15.8953 74.8185 15.6566 74.7791 15.4055L74.7792 15.4053ZM76.5623 10.9955V20.4749H82.1064V19.3109H77.7825V16.3037H81.6826V15.1668H77.7825V12.162H82.1064V10.9954L76.5623 10.9955ZM89.8807 12.162V10.9955H83.3552V12.162H86.0079V20.4749H87.2281V12.162H89.8807ZM95.7885 10.9955H94.5682V20.4749H95.7885V10.9955ZM103.843 12.162V10.9955H97.3176V12.162H99.97V20.4749H101.19V12.162H103.843ZM116.157 12.2285C115.215 11.2613 114.061 10.7839 112.683 10.7839C111.303 10.7839 110.149 11.2613 109.207 12.2137C108.265 13.1538 107.802 14.3326 107.802 15.7352C107.802 17.1378 108.266 18.3167 109.207 19.2569C110.149 20.2091 111.303 20.6867 112.683 20.6867C114.049 20.6867 115.215 20.2091 116.157 19.2569C117.098 18.3168 117.562 17.1379 117.562 15.7352C117.562 14.3448 117.098 13.1684 116.157 12.2285V12.2285ZM110.082 13.0209C110.785 12.3072 111.648 11.9504 112.683 11.9504C113.716 11.9504 114.579 12.3073 115.269 13.0209C115.972 13.7222 116.317 14.6375 116.317 15.7352C116.317 16.8353 115.972 17.7481 115.269 18.4496C114.579 19.1632 113.716 19.5224 112.683 19.5224C111.648 19.5224 110.785 19.1632 110.082 18.4496C109.395 17.7334 109.05 16.8353 109.05 15.7352C109.05 14.6376 109.395 13.7369 110.082 13.0209V13.0209ZM120.461 14.5713L120.409 12.7427H120.461L125.288 20.4748H126.562V10.9954H125.342V16.5422L125.394 18.3708H125.342L120.727 10.9954H119.241V20.4748H120.461V14.5713Z" fill="white" stroke="white" stroke-width="0.315548" stroke-miterlimit="10"/>
</g>
<defs>
<clipPath id="clip0_61_60">
<rect width="213" height="63" fill="white"/>
</clipPath>
</defs>
</svg>
