<svg width="52" height="52" viewBox="0 0 52 52" fill="none" xmlns="http://www.w3.org/2000/svg">
<g clip-path="url(#clip0_1_901)">
<path fill-rule="evenodd" clip-rule="evenodd" d="M18.7213 3.12C18.7213 1.39687 20.1182 0 21.8413 0C33.3289 0 42.6413 9.31248 42.6413 20.8C42.6413 22.5231 41.2444 23.92 39.5213 23.92C37.7982 23.92 36.4013 22.5231 36.4013 20.8C36.4013 12.7587 29.8826 6.24 21.8413 6.24C20.1182 6.24 18.7213 4.84313 18.7213 3.12Z" fill="white"/>
<path fill-rule="evenodd" clip-rule="evenodd" d="M33.2786 48.8801C33.2786 50.6032 31.8817 52.0001 30.1586 52.0001C18.6711 52.0001 9.35858 42.6877 9.35858 31.2001C9.35858 29.477 10.7554 28.0801 12.4786 28.0801C14.2017 28.0801 15.5986 29.477 15.5986 31.2001C15.5986 39.2413 22.1173 45.7601 30.1586 45.7601C31.8817 45.7601 33.2786 47.157 33.2786 48.8801Z" fill="white"/>
<path fill-rule="evenodd" clip-rule="evenodd" d="M3.12 33.2798C1.39687 33.2798 7.53205e-08 31.8829 0 30.1598C-5.02136e-07 18.6722 9.31248 9.35974 20.8 9.35974C22.5231 9.35974 23.92 10.7566 23.92 12.4798C23.92 14.2029 22.5231 15.5998 20.8 15.5998C12.7588 15.5998 6.24 22.1185 6.24 30.1598C6.24 31.8829 4.84313 33.2798 3.12 33.2798Z" fill="white"/>
<path fill-rule="evenodd" clip-rule="evenodd" d="M48.8799 18.7195C50.603 18.7195 51.9999 20.1164 51.9999 21.8395C51.9999 33.3271 42.6875 42.6395 31.1999 42.6395C29.4768 42.6395 28.0799 41.2426 28.0799 39.5195C28.0799 37.7964 29.4768 36.3995 31.1999 36.3995C39.2411 36.3995 45.7599 29.8808 45.7599 21.8395C45.7599 20.1164 47.1568 18.7195 48.8799 18.7195Z" fill="white"/>
</g>
<defs>
<clipPath id="clip0_1_901">
<rect width="52" height="52" fill="white"/>
</clipPath>
</defs>
</svg>
