<svg width="52" height="52" viewBox="0 0 52 52" fill="none" xmlns="http://www.w3.org/2000/svg">
<path d="M10.7853 33.1425C10.7853 36.1076 8.38885 38.5041 5.42372 38.5041C2.4586 38.5041 0.0621338 36.1076 0.0621338 33.1425C0.0621338 30.1774 2.4586 27.7809 5.42372 27.7809H10.7853V33.1425ZM13.4661 33.1425C13.4661 30.1774 15.8626 27.7809 18.8277 27.7809C21.7928 27.7809 24.1893 30.1774 24.1893 33.1425V46.5465C24.1893 49.5116 21.7928 51.9081 18.8277 51.9081C15.8626 51.9081 13.4661 49.5116 13.4661 46.5465V33.1425Z" fill="#E01E5A"/>
<path d="M18.8277 11.6149C15.8626 11.6149 13.4661 9.21844 13.4661 6.25332C13.4661 3.28819 15.8626 0.891724 18.8277 0.891724C21.7928 0.891724 24.1893 3.28819 24.1893 6.25332V11.6149H18.8277ZM18.8277 14.3363C21.7928 14.3363 24.1893 16.7328 24.1893 19.6979C24.1893 22.663 21.7928 25.0595 18.8277 25.0595H5.38313C2.41801 25.0595 0.0215454 22.663 0.0215454 19.6979C0.0215454 16.7328 2.41801 14.3363 5.38313 14.3363H18.8277Z" fill="#36C5F0"/>
<path d="M40.3147 19.6979C40.3147 16.7328 42.7111 14.3363 45.6763 14.3363C48.6414 14.3363 51.0379 16.7328 51.0379 19.6979C51.0379 22.663 48.6414 25.0595 45.6763 25.0595H40.3147V19.6979ZM37.6339 19.6979C37.6339 22.663 35.2374 25.0595 32.2723 25.0595C29.3072 25.0595 26.9107 22.663 26.9107 19.6979V6.25332C26.9107 3.28819 29.3072 0.891724 32.2723 0.891724C35.2374 0.891724 37.6339 3.28819 37.6339 6.25332V19.6979Z" fill="#2EB67D"/>
<path d="M32.2723 41.1849C35.2374 41.1849 37.6339 43.5813 37.6339 46.5465C37.6339 49.5116 35.2374 51.9081 32.2723 51.9081C29.3072 51.9081 26.9107 49.5116 26.9107 46.5465V41.1849H32.2723ZM32.2723 38.5041C29.3072 38.5041 26.9107 36.1076 26.9107 33.1425C26.9107 30.1774 29.3072 27.7809 32.2723 27.7809H45.7169C48.682 27.7809 51.0785 30.1774 51.0785 33.1425C51.0785 36.1076 48.682 38.5041 45.7169 38.5041H32.2723Z" fill="#ECB22E"/>
</svg>
