<svg width="46" height="47" viewBox="0 0 46 47" fill="none" xmlns="http://www.w3.org/2000/svg">
<g clip-path="url(#clip0_1_877)">
<path d="M17.4828 1.56656L18.0003 3.65812C15.9644 4.15855 14.0166 4.96445 12.2216 6.04797L11.1147 4.20078C13.0921 3.00676 15.2394 2.1182 17.4828 1.56656ZM28.0053 3.65812C30.0412 4.15855 31.989 4.96445 33.7841 6.04797L34.8981 4.20078C32.918 3.00586 30.7689 2.1182 28.5228 1.56656L28.0053 3.65812ZM3.30906 12.0055C2.11503 13.983 1.22648 16.1302 0.674839 18.3727L2.7664 18.8902C3.26683 16.8553 4.07273 14.9066 5.15625 13.1124L3.30906 12.0055ZM2.39265 20.7698L0.261558 20.4463C-0.0834424 22.7311 -0.0834424 25.0544 0.261558 27.3391L2.39265 27.0157C2.08089 24.9502 2.08089 22.8353 2.39265 20.7698ZM33.7841 41.7375C31.9917 42.8201 30.0457 43.626 28.0125 44.1273L28.53 46.2189C30.7707 45.6664 32.9153 44.7787 34.8909 43.5847L33.7841 41.7375ZM43.613 27.0157L45.7441 27.3391C46.0891 25.0544 46.0891 22.7311 45.7441 20.4463L43.613 20.7698C43.9247 22.8353 43.9247 24.9502 43.613 27.0157ZM43.2392 28.8952C42.7388 30.9302 41.9329 32.8789 40.8494 34.6731L42.6966 35.7871C43.8915 33.807 44.7791 31.6579 45.3308 29.4127L43.2392 28.8952ZM26.1258 44.5047C24.0558 44.8164 21.9498 44.8164 19.8798 44.5047L19.5564 46.6358C21.8411 46.9808 24.1645 46.9808 26.4492 46.6358L26.1258 44.5047ZM39.782 36.2579C38.5386 37.9416 37.0499 39.4285 35.3653 40.6702L36.6447 42.4059C38.5035 41.0394 40.1459 39.4025 41.5178 37.5481L39.782 36.2579ZM35.3653 7.11531C37.0499 8.35785 38.5395 9.84656 39.782 11.5311L41.5178 10.2374C40.1504 8.38391 38.5125 6.74695 36.6591 5.37953L35.3653 7.11531ZM6.22359 11.5311C7.46613 9.84656 8.95574 8.35785 10.6403 7.11531L9.34656 5.37953C7.49308 6.74695 5.85523 8.38391 4.48781 10.2374L6.22359 11.5311ZM40.8494 13.1124C41.932 14.9048 42.7379 16.8508 43.2392 18.883L45.3308 18.3655C44.7782 16.1257 43.8897 13.9812 42.6966 12.0055L40.8494 13.1124ZM19.8798 3.28437C21.9498 2.97262 24.0558 2.97262 26.1258 3.28437L26.4492 1.15328C24.1645 0.808281 21.8411 0.808281 19.5564 1.15328L19.8798 3.28437ZM7.33046 42.9773L2.87781 44.0159L3.9164 39.5642L1.81765 39.0718L0.779058 43.5236C0.41519 45.0779 1.81585 46.4786 3.37015 46.1147L7.81921 45.0941L7.33046 42.9773ZM2.26687 37.1492L4.36562 37.6379L5.08437 34.5509C4.03679 32.79 3.25605 30.8844 2.7664 28.8952L0.674839 29.4127C1.14382 31.3174 1.85628 33.1547 2.79515 34.8779L2.26687 37.1492ZM9.24234 42.5389L9.73109 44.6377L12.0023 44.1094C13.7255 45.0482 15.5628 45.7607 17.4684 46.2297L17.9859 44.1381C16.0004 43.6431 14.0993 42.857 12.3437 41.8058L9.24234 42.5389ZM6.65394 14.8589C3.36656 20.8111 3.5723 28.0786 7.19031 33.8357L5.39343 41.5003L13.0589 39.7043C19.7828 43.9387 28.4482 43.458 34.6636 38.5067C40.8781 33.5563 43.2814 25.217 40.6562 17.7178C35.3294 2.50723 14.3985 0.83703 6.65394 14.8589Z" fill="white"/>
</g>
<defs>
<clipPath id="clip0_1_877">
<rect width="46" height="46" fill="white" transform="translate(0 0.894531)"/>
</clipPath>
</defs>
</svg>
